<?xml version="1.0" encoding="UTF-8"?>
<!DOCTYPE svg PUBLIC "-//W3C//DTD SVG 1.1//EN" "http://www.w3.org/Graphics/SVG/1.1/DTD/svg11.dtd">
<!-- Creator: CorelDRAW X7 -->
<svg xmlns="http://www.w3.org/2000/svg" xml:space="preserve" width="400mm" height="400mm" version="1.1" style="shape-rendering:geometricPrecision; text-rendering:geometricPrecision; image-rendering:optimizeQuality; fill-rule:evenodd; clip-rule:evenodd"
viewBox="0 0 40000 40000"
 xmlns:xlink="http://www.w3.org/1999/xlink">
 <defs>
  <style type="text/css">
   <![CDATA[
    .fil1 {fill:#FEFEFE}
    .fil0 {fill:#CF0D14}
   ]]>
  </style>
 </defs>
 <g id="Camada_x0020_1">
  <metadata id="CorelCorpID_0Corel-Layer"/>
  <g id="_2139799679152">
   <path class="fil0" d="M35522 19896c0,8466 -6863,15329 -15328,15329 -8466,0 -15329,-6863 -15329,-15329 0,-8466 6863,-15328 15329,-15328 8465,0 15328,6862 15328,15328z"/>
   <path class="fil1" d="M20088 23148l50 -5062 12906 126c10,164 35,332 68,572 48,348 47,471 77,849 291,3663 -1178,7376 -3407,9646 -2235,2271 -5355,3389 -9366,3350 -1974,-19 -3725,-329 -5251,-935 -1531,-601 -2896,-1515 -4086,-2738 -1147,-1165 -2024,-2542 -2649,-4124 -621,-1583 -922,-3242 -906,-4970 18,-1802 346,-3454 979,-4964 634,-1507 1571,-2856 2814,-4054 1231,-1165 2642,-2041 4225,-2634 1582,-587 3287,-875 5120,-857 2382,23 4567,365 6306,1464 4242,2679 5410,6559 5474,6861l-6665 36c-677,-940 -1442,-1641 -2294,-2105 -858,-465 -1815,-705 -2875,-715 -1986,-19 -3552,624 -4705,1925 -1154,1307 -1744,3097 -1766,5372 -22,2297 533,4115 1660,5444 1128,1334 2681,2008 4667,2028 1679,16 3090,-381 4222,-1192 1130,-806 1799,-1893 2000,-3258l-6598 -65z"/>
  </g>
 </g>
</svg>
